<svg xmlns="http://www.w3.org/2000/svg" xmlns:xlink="http://www.w3.org/1999/xlink" width="270" height="263.2590560045322" viewBox="0 0 270 263.2590560045322" class="css-1j8o68f">
  <defs id="SvgjsDefs1001"></defs>
  <g id="SvgjsG1007" featurekey="rootContainer" transform="matrix(2.5809711372993354,0,0,2.5809711372993354,0.030434266996216174,0)" fill="#444f5a">
    <path xmlns="http://www.w3.org/2000/svg" d="M50.8 102h5.8l1.8-.2 1.7-.3h1.7l1.9-.3 1.8-.4.9-.2.9-.3 1.7-.6 2-.8a54 54 0 0 0 15.3-9.4l1.4-1.2.7-.5.6-.4 1-.5.8-.5 1.5-1.2 1.5-1.5.8-1 .9-1.1a50.9 50.9 0 0 0 3.9-5.8 34.8 34.8 0 0 0 1.6-3.1l.2-.4.2-.4.3-.8.3-.9.2-.4v-.4l.4-1.2.2-.6v-.3h.1v-.2l.7-2.5c.2-.9.4-1.7.5-2.6a25.4 25.4 0 0 0 .2-2.6v-3.1c0-.3 0-1 .1-1.5v-2.1a21.3 21.3 0 0 0 .2-2.6v-2.6c0-.9-.1-1.1-.1-1.6l-.2-1.5c-.1-1-.4-2-.5-3s-.2-1-.3-1.4l-.3-1.4-.3-1.4v-1.7l-.4-1.4-.2-.7-.2-.7-.4-1.4-.5-1.4-.4-1-.5-1-1-2.1a40.7 40.7 0 0 1-1.8-4.1 3.6 3.6 0 0 0-.8-1.2l-.7-.6-.2-.3-.3-.5a25.7 25.7 0 0 0-1.6-2.3l-.8-1.1-.9-1.1-.4-.5-.2-.3-.2-.2h-.1l-.9-1-.5-.5-.5-.5-.9-1.1-1.1-1a47.9 47.9 0 0 0-3.8-3l-.1-.5-1.3-.9A29 29 0 0 0 72 .4h-3.1a.8.8 0 0 0-.6 1.2A3.9 3.9 0 0 0 69.9 3l-.6.3-.4-.2a.9.9 0 0 0 0-.3c-.1-.5-.2-.9-1.3-1.3L65.3.7l-.6-.2h-.6L62.8 0l-1.3 1.2A48.5 48.5 0 0 0 39 2.4 31.1 31.1 0 0 0 31.4 4h-.5l-.5.2-1 .4-1 .5-.9.6-1.8 1.5-.8.6-.7.7c-1 .9-1.9 1.9-2.8 2.8L20 12.8l-1.4 1.5-.5.5-.5.5-1.1 1a55.1 55.1 0 0 0-7 7l.2-.5.6-1.1.6-1.1.6-1.1.6-1.2.6-1.2 1.2-2.4.4-.8.3-.6a1 1 0 0 0 0-.8 3.7 3.7 0 0 1-.2-1.2 17.1 17.1 0 0 0-2.1 1.1l-1.5 1.1-.8.6-.7.7-.8 1-.5 1-.5 1-.2.5-.3.5-.3.6-.4.8-.4.8-.7 1.7-.5 1.3-.5 1.3v.7l-.2.6-.3 1.3v.2h-.4v.3l-.2.7-.3 1.4-.2.7-.2.7-.4 1.7-.4 1.9-.2.9v2.8l-.6 1.9a38.3 38.3 0 0 0-.1 4.1 52.7 52.7 0 0 0-.7 8.7 5.2 5.2 0 0 0 0 .7c.5 3 .8 6 1.5 9l.4 1.8.5 1.8a18.3 18.3 0 0 0 .6 1.7l.4.8.4.8.9 1.7.5.8.5.8.5.8.5.8L7.8 77c1.4 2 2.9 4 4.5 5.9a35.6 35.6 0 0 0 2.6 2.7l.7.6.3.3.4.3 1.5 1.1 1 1a34 34 0 0 0 8.2 6.2l1.4.7 1.5.7.7.3.8.3 1.5.6.9.4.8.4.8.4 1 .4 1.9.7 1.9.6 1.6.4 1.6.4 1.6.3h5.7z"></path>
  </g>
  <g id="SvgjsG1008" featurekey="symbolFeature-0" transform="matrix(0.9483112610997584,0,0,0.9483112610997584,88.11432007498718,57.58443694501208)" fill="#ffffff">
    <path xmlns="http://www.w3.org/2000/svg" d="M89.8225098,49.1332397H76.5374756c-0.1359863,0-0.2669678,0.0180054-0.3939819,0.0469971  c-3.4959717,0.4879761-4.8469849,7.3359985-5.3649902,12.7999878H49.1655273  c-0.519043-5.4639893-1.8690186-12.3120117-5.3650513-12.7999878c-0.1269531-0.0289917-0.2579956-0.0469971-0.3939819-0.0469971  H30.1224976c-5.9099731,0-6.0800171,17.4269409-6.0800171,19.414978c0,1.9860229,0.1700439,19.4140015,6.0800171,19.4140015  h13.2839966c0.1359863,0,0.2670288-0.0200195,0.3939819-0.0490112c3.4960327-0.4860229,4.8470459-7.3359985,5.3650513-12.7999878  h21.6129761c0.5189819,5.4639893,1.8690186,12.3129883,5.3649902,12.7999878  c0.1270142,0.0289917,0.2579956,0.0490112,0.3939819,0.0490112h13.2850342c5.9099731,0,6.0800171-17.4279785,6.0800171-19.4140015  C95.9025269,66.5612183,95.7324829,49.1332397,89.8225098,49.1332397z M39.59552,84.4031982h-8.2640381  c-0.9729614-0.8959961-2.730957-6.3540039-2.730957-15.8549805c0-9.5020142,1.7589722-14.9609985,2.730957-15.8549805H39.59552  c-2.1820068,5.2069702-2.2700195,14.440979-2.2700195,15.8549805C37.3255005,69.9642334,37.4135132,79.1972046,39.59552,84.4031982z   M77.1334839,70.5571899H42.8115234c-0.1620483-0.2999878-0.4640503-0.1129761-0.4640503-2.0089722  s0.302002-1.7089844,0.4640503-2.0100098h34.3219604c0.1620483,0.3010254,0.4639893,0.1129761,0.4639893,2.0100098  C77.5975342,70.4442139,77.2955322,70.2572021,77.1334839,70.5571899z M88.6135254,84.4031982h-8.2640381  c2.1820068-5.2059937,2.2709961-14.4389648,2.2709961-15.8549805c0-1.4140015-0.0889893-10.6480103-2.2709961-15.8549805h8.2640381  c0.9729614,0.8939819,2.730957,6.3529663,2.730957,15.8549805S89.5855103,83.5072021,88.6135254,84.4031982z M16.0325928,73.2259521  c-3.8959351-3.8959961-6.0415649-9.0759277-6.0415649-14.5857544c0-8.6219482,5.5661011-14.2971802,7.0608521-15.5319824  c3.852478-3.1826782,8.5228271-5.0952759,13.5664673-5.0952759c5.026001,0,9.7124634,1.8625488,13.5269165,5.0611572  c1.6434326,1.3780518,7.1003418,5.961853,7.1003418,15.5661011c0,0.3612671-0.0340576,0.7165527-0.0523071,1.074707h5.2648315  c0.0145264-0.3572388,0.0261841-0.7150269,0.0261841-1.074707c0-5.2131958-1.5333862-10.1898804-4.3842163-14.4181519  c2.9568481-4.2981567,5.0390625-9.3878784,5.0390625-15.2258911c0-11.6514893-13.7949829-16.958374-26.6116333-16.958374  c-12.7296143,0-26.4300537,5.3068848-26.4300537,16.958374c0,5.8748779,2.0678711,10.973999,5.0089722,15.2688599  c-2.8319702,4.21875-4.3540649,9.1799316-4.3540649,14.3751831c0,6.9099121,2.6904907,13.4053955,7.5762329,18.2902222  c1.6810913,1.6811523,5.6459961,2.8076172,10.3900146,3.3865356l-0.7994995-5.4118042  C18.4348145,74.3907471,16.4945068,73.65271,16.0325928,73.2259521z M30.5275269,19.0227051  c9.5142822,0,19.62677,3.4954224,19.62677,9.9734497c0,3.6068115-1.1453247,6.9050903-2.8979492,9.8443604  c-4.6532593-3.9238892-10.4793701-6.0662842-16.6380005-6.0662842c-6.1708374,0-12.0079346,2.1513672-16.6659546,6.0906982  c-1.7363281-2.9367676-2.8699951-6.2403564-2.8699951-9.8687744C11.0823975,24.0401001,17.7615967,19.0227051,30.5275269,19.0227051  z"></path>
  </g>
  <g id="SvgjsG1009" featurekey="nameFeature-0" transform="matrix(1.0814925673377065,0,0,1.0814925673377065,34.01351498018037,150.5910816633658)" fill="#ffffff">
    <path d="M8.92 10 l0.6 -0.24 c0.48 -0.2 1 -0.16 1.48 0 c0.12 0.04 0.24 0.12 0.24 0.24 c0.04 0.28 0.08 0.56 0.12 0.8 c0.08 0.6 0 1.2 0.12 1.76 c0.04 0.16 0 0.36 0 0.52 c0 1.2 0 2.4 0.12 3.6 c0.08 1.28 0.08 2.56 0.08 3.84 c0 0.28 0.04 0.56 0.08 0.8 l0 0.68 l0 1.68 c0 0.08 0.04 0.16 0.04 0.24 s0.12 0.16 0.2 0.12 c0.12 0 0.24 -0.04 0.36 -0.08 c0.28 -0.12 0.56 -0.2 0.84 -0.32 c0.12 -0.04 0.28 -0.08 0.4 -0.08 c0.36 0 0.64 -0.08 0.96 -0.16 c0.44 -0.12 0.88 -0.12 1.32 -0.12 c0.08 0 0.2 0.04 0.28 0.08 s0.2 0.12 0.2 0.2 c0.2 0.68 0.36 1.4 0.32 2.12 c0 0.16 0 0.32 -0.04 0.48 s-0.12 0.24 -0.24 0.28 c-0.2 0.04 -0.36 0.12 -0.56 0.12 c-0.64 0 -1.24 0.16 -1.8 0.32 c-0.68 0.16 -1.32 0.4 -2 0.6 c-0.16 0.04 -0.2 0.16 -0.2 0.32 c0 0.8 -0.08 1.6 0 2.36 c0.04 0.2 0.04 0.4 0.04 0.6 l0 6.64 c0 1.04 -0.08 2.12 -0.12 3.16 c0 0.16 -0.12 0.28 -0.28 0.28 c-0.24 0 -0.48 0.04 -0.72 0.08 c-0.64 0.08 -1.32 0.12 -1.96 -0.04 c-0.24 -0.08 -0.36 -0.2 -0.36 -0.4 c-0.08 -0.36 -0.12 -0.76 -0.12 -1.12 c-0.08 -3.2 -0.04 -6.4 -0.04 -9.6 c0 -0.24 0.04 -0.48 -0.08 -0.72 c-0.08 0 -0.2 0 -0.28 0.04 c-0.68 0.24 -1.32 0.48 -2 0.72 c-0.2 0.08 -0.28 0.2 -0.28 0.4 l0 0.64 l0 6.2 c0 0.28 0 0.56 -0.04 0.8 c0 0.2 -0.08 0.28 -0.28 0.32 c-0.56 0.08 -1.16 0.16 -1.76 0.16 c-0.24 0 -0.48 -0.04 -0.72 -0.12 c-0.04 0 -0.08 0 -0.12 -0.04 c-0.2 -0.08 -0.32 -0.2 -0.32 -0.44 c-0.04 -0.4 -0.04 -0.84 -0.04 -1.24 c-0.04 -1.64 -0.04 -3.24 -0.04 -4.88 l0 -0.64 c0 -0.36 -0.04 -0.4 -0.4 -0.4 c-0.16 -0.04 -0.36 -0.04 -0.56 -0.08 c-0.12 0 -0.2 -0.08 -0.24 -0.16 c-0.12 -0.4 -0.24 -0.8 -0.2 -1.24 c0 -0.32 0 -0.68 0.08 -1 c0.08 -0.2 0.16 -0.36 0.4 -0.4 c0.28 -0.12 0.6 -0.2 0.92 -0.28 c0.04 -0.12 0.04 -0.24 0.04 -0.36 c0.04 -1.04 0.04 -2.04 0.08 -3.08 c0 -0.6 0 -1.2 0.04 -1.76 c0.08 -0.6 0.04 -1.2 0.08 -1.76 c0.04 -1.04 0.04 -2.04 0.08 -3.04 c0.04 -0.72 0.04 -1.44 0.08 -2.12 l0.12 -1.56 c0 -0.16 0.04 -0.32 0.08 -0.52 l0.24 -1.08 c0.04 -0.28 0.36 -0.56 0.64 -0.6 l0.32 0 c0.56 0 0.64 0.16 0.68 0.56 c0.04 0.12 0.04 0.2 0.08 0.28 c0.24 0.88 0.32 1.76 0.36 2.64 c0.04 1.12 0.12 2.24 0.12 3.36 c0 0.12 -0.04 0.2 0 0.32 c0.12 1.08 0.12 2.16 0.12 3.24 c0 0.56 0.04 1.12 0.04 1.68 l0 0.28 c0.12 0.68 0.08 1.36 0.08 2 c0 0.16 0.04 0.28 0.04 0.44 c0 0.04 0.08 0.08 0.12 0.08 l0.12 0 l2.16 -0.84 c0.16 -0.08 0.28 -0.16 0.28 -0.36 c0.04 -0.88 0.04 -1.72 0.08 -2.6 c0 -1.24 0 -2.48 0.04 -3.76 c0 -0.64 0.08 -1.32 0.12 -1.96 c0 -0.32 0 -0.6 0.04 -0.88 c0 -1.2 0.04 -2.36 0.08 -3.56 c0.04 -0.64 0.12 -1.32 0.16 -1.96 c0 -0.16 0.04 -0.32 0.08 -0.48 z M23.766 39.72 l-0.36 -0.12 s-0.24 -0.04 -0.32 0 s-0.2 0.04 -0.28 0.04 c-0.6 -0.08 -1.32 -0.24 -1.8 -0.8 c-0.04 0 -0.08 -0.04 -0.12 -0.08 c-0.64 -0.4 -1.04 -1 -1.6 -1.52 c-0.2 -0.16 -0.32 -0.36 -0.44 -0.56 c-0.08 -0.16 -0.16 -0.36 -0.2 -0.52 c-0.12 -0.28 -0.2 -0.56 -0.2 -0.84 c0.04 -0.2 -0.04 -0.4 -0.08 -0.6 c-0.08 -0.28 -0.12 -0.56 -0.2 -0.84 c-0.2 -0.68 -0.28 -1.36 -0.44 -2.04 c-0.08 -0.36 -0.08 -0.72 -0.08 -1.08 c0 -1.24 -0.04 -2.48 -0.04 -3.72 s0.04 -2.48 0.04 -3.76 l0 -1.8 c0.04 -0.28 0 -0.56 -0.16 -0.8 c-0.04 -0.08 -0.04 -0.2 -0.04 -0.32 c0.04 -0.08 0.04 -0.12 0.04 -0.2 c0.08 -0.44 0.08 -0.88 -0.04 -1.32 c-0.04 -0.2 -0.04 -0.4 0 -0.6 c0.08 -0.36 0.12 -0.68 0 -1 l0 -0.28 c0.04 -0.12 0.04 -0.2 0.08 -0.32 c0.12 -0.28 0.16 -0.6 0.16 -0.92 c0 -0.24 0.04 -0.48 0.16 -0.72 c0.2 -0.48 0.52 -0.88 0.72 -1.36 c0.04 -0.08 0.08 -0.16 0.16 -0.2 c0.4 -0.44 0.8 -0.88 1.28 -1.2 c0.32 -0.2 0.6 -0.44 0.92 -0.68 c0.16 -0.16 0.36 -0.24 0.6 -0.28 c0.32 -0.08 0.6 -0.12 0.92 -0.2 c0.16 -0.08 0.32 -0.08 0.44 -0.08 c0.16 -0.04 0.32 -0.04 0.48 -0.08 c0.12 -0.04 0.28 -0.04 0.4 0.04 c0.04 0.04 0.12 0.04 0.16 0.08 c0.2 0.12 0.44 0.16 0.68 0.16 l0.4 0 s0.28 0.04 0.4 0.16 c0.04 0.04 0.08 0.08 0.12 0.08 c0.12 0.16 0.28 0.24 0.44 0.28 c0.44 0.16 0.72 0.44 1 0.8 c0.16 0.24 0.36 0.52 0.6 0.72 c0.08 0.08 0.16 0.2 0.2 0.32 c0.12 0.28 0.24 0.52 0.32 0.84 c0.04 0.2 0.16 0.4 0.24 0.6 c0.12 0.24 0.2 0.52 0.24 0.76 c0 0.36 0.08 0.72 0.16 1.08 c0.08 0.32 0.12 0.68 0.12 1 c-0.04 0.32 0 0.64 0.12 0.92 c0.04 0.12 0.04 0.24 0.04 0.32 c0.04 0.2 0.04 0.4 -0.08 0.52 c-0.08 0.12 -0.08 0.28 -0.08 0.4 l0 0.72 l0 13.24 c0.04 0.6 -0.12 1.2 -0.36 1.76 l-0.84 1.92 c-0.08 0.12 -0.16 0.2 -0.24 0.32 c-0.36 0.52 -0.92 0.84 -1.4 1.2 c-0.2 0.16 -0.4 0.24 -0.64 0.28 c-0.12 0 -0.28 0.04 -0.4 0.04 c-0.4 0 -0.8 0.12 -1.2 0.24 z M20.766 26.52 l0 4.48 l0 0.68 c0 0.12 0 0.24 0.04 0.32 c0.16 0.28 0.2 0.56 0.24 0.84 c0.04 0.12 0.08 0.28 0.12 0.4 c0.16 0.4 0.32 0.76 0.48 1.16 c0.08 0.16 0.16 0.36 0.24 0.48 c0.28 0.32 0.56 0.64 0.8 0.92 c0.32 0.36 0.76 0.48 1.24 0.44 c0.36 -0.04 0.64 -0.16 0.8 -0.52 c0.04 -0.08 0.04 -0.16 0.08 -0.24 c0 -0.36 0.12 -0.72 0.24 -1.08 c0.08 -0.28 0.16 -0.56 0.16 -0.84 c0 -0.2 0.08 -0.4 0.12 -0.6 c0.24 -0.56 0.32 -1.16 0.36 -1.76 c0 -0.44 0 -0.84 0.04 -1.28 c0 -0.16 0 -0.32 -0.08 -0.48 c-0.04 -0.08 -0.04 -0.2 0 -0.32 c0.12 -0.52 0.08 -1.04 0.04 -1.56 c-0.08 -0.76 -0.04 -1.56 -0.04 -2.32 c0 -1.48 0.04 -2.92 0.04 -4.4 c0.04 -0.24 0.04 -0.44 -0.04 -0.68 c-0.04 -0.08 -0.04 -0.2 -0.04 -0.32 c-0.04 -0.56 -0.12 -1.12 -0.24 -1.68 s-0.24 -1.12 -0.24 -1.72 c0 -0.28 -0.12 -0.56 -0.24 -0.84 c-0.08 -0.16 -0.2 -0.28 -0.28 -0.44 c-0.08 -0.2 -0.24 -0.32 -0.44 -0.4 c-0.08 -0.08 -0.2 -0.12 -0.28 -0.16 c-0.6 -0.2 -1.12 -0.16 -1.6 0.24 c-0.28 0.24 -0.52 0.48 -0.76 0.76 c-0.16 0.12 -0.24 0.32 -0.28 0.52 c-0.08 0.4 -0.16 0.84 -0.24 1.24 l0 0.2 c0 0.2 -0.04 0.4 0 0.6 c0 0.24 -0.16 0.44 -0.2 0.68 l0 0.04 c-0.04 0.52 -0.12 1.04 -0.16 1.56 c-0.04 0.36 -0.04 0.76 0.04 1.12 c0.04 0.12 0.04 0.24 0.04 0.36 c0 1.56 -0.04 3.16 0.04 4.6 z M45.012 21.12 c-0.16 0.16 -0.2 0.32 -0.24 0.48 c-0.16 0.8 -0.44 1.6 -0.72 2.36 c-0.24 0.64 -0.4 1.32 -0.6 1.96 c-0.16 0.44 -0.32 0.92 -0.52 1.4 c-0.12 0.32 -0.28 0.64 -0.48 0.92 c-0.2 0.24 -0.32 0.48 -0.52 0.72 c-0.08 0.12 -0.2 0.24 -0.28 0.36 c-0.08 0.08 -0.2 0.12 -0.32 0.12 c-0.24 0 -0.44 -0.04 -0.68 0.04 c-0.04 0.04 -0.12 0 -0.2 0 c-0.12 -0.04 -0.28 -0.04 -0.44 0 c-0.24 0.08 -0.44 0.04 -0.68 0.04 c-0.08 0 -0.12 -0.04 -0.2 -0.04 c-0.36 -0.2 -0.48 -0.28 -0.48 -0.72 l0 -0.08 c0.12 -0.4 0 -0.76 -0.16 -1.12 c-0.08 -0.12 -0.12 -0.24 -0.2 -0.36 c-0.24 -0.64 -0.52 -1.24 -0.84 -1.8 c-0.52 -0.96 -0.88 -1.92 -1.16 -2.96 c-0.08 -0.36 -0.2 -0.76 -0.28 -1.12 c-0.12 -0.44 -0.28 -0.88 -0.48 -1.32 c-0.04 -0.04 -0.08 -0.04 -0.12 -0.04 c-0.04 -0.04 -0.08 0 -0.08 0.08 l0 0.32 c0 0.76 0 1.52 0.08 2.28 c0.04 0.64 0.08 1.24 0.12 1.84 c0.08 0.72 0.04 1.44 0.16 2.16 l0 0.12 c0.04 0.76 0.04 1.52 0.04 2.28 c0.04 0.24 0.04 0.44 0.04 0.68 c0.04 0.2 0.04 0.4 0.04 0.6 l0 7.76 c0 0.2 0 0.36 -0.04 0.56 c0 0.08 -0.08 0.16 -0.16 0.2 c-0.64 0.12 -1.28 0.16 -1.92 0.16 c-0.08 0 -0.12 0 -0.16 -0.04 c-0.64 -0.16 -0.64 -0.04 -0.72 -0.76 l0 -0.4 c-0.04 -0.32 -0.04 -0.68 -0.08 -1 c-0.04 -0.48 -0.08 -0.96 -0.08 -1.4 l0 -1.36 c-0.04 -0.72 0 -1.44 -0.04 -2.16 l0 -1.48 c-0.04 -0.2 -0.04 -0.36 -0.04 -0.56 l0 -2.48 l0 -0.4 c-0.08 -0.72 -0.04 -1.44 -0.04 -2.16 l0 -10.2 c-0.04 -0.64 0.04 -1.28 0.12 -1.92 c0.04 -0.12 0.16 -0.12 0.24 -0.16 c0.44 -0.32 0.96 -0.44 1.48 -0.6 c0.24 -0.04 0.44 -0.04 0.68 -0.04 c0.08 0 0.16 0.08 0.2 0.16 c0.16 0.24 0.24 0.52 0.36 0.8 c0.16 0.56 0.4 1.08 0.6 1.64 c0.36 0.56 0.6 1.2 0.88 1.8 c0.24 0.56 0.52 1.08 0.84 1.6 c0.24 0.4 0.36 0.84 0.6 1.2 c0.08 0.12 0.12 0.24 0.16 0.4 c0.16 0.48 0.28 0.96 0.44 1.48 c0.08 0.12 0.08 0.24 0.12 0.36 c0.08 0.88 0.4 1.68 0.84 2.4 c0.16 0.32 0.32 0.64 0.52 0.96 c0 0.04 0.08 0.08 0.08 0.04 c0.04 0 0.08 -0.04 0.08 -0.08 c0.12 -0.36 0.24 -0.72 0.32 -1.08 c0.08 -0.32 0.16 -0.64 0.24 -0.92 c0.16 -0.52 0.32 -1.04 0.44 -1.56 c0.12 -0.76 0.32 -1.48 0.6 -2.2 c0.28 -0.68 0.4 -1.4 0.48 -2.12 c0.04 -0.28 0.08 -0.56 0.16 -0.84 c0.16 -0.64 0.28 -1.28 0.52 -1.88 c0.24 -0.56 0.32 -1.16 0.4 -1.76 c0.04 -0.12 0.04 -0.24 0.08 -0.36 c0.04 -0.2 0.16 -0.32 0.36 -0.28 c0.64 0 1.32 0.04 1.96 0.08 c0.16 0 0.36 0 0.52 0.04 c0.16 0 0.32 0.04 0.48 0.08 c0.12 0.04 0.24 0.12 0.28 0.24 c0.12 0.28 0.16 0.56 0.16 0.88 c0.04 0.28 0.04 0.56 0.08 0.88 c0.12 0.84 0.16 1.68 0.16 2.52 l0 3.2 c0.08 5.88 0.04 11.76 0.04 17.68 l0 0.92 c0 0.12 0 0.24 -0.04 0.36 c0 0.04 -0.08 0.12 -0.12 0.12 c-0.68 0.16 -1.32 0.24 -2 0.2 l-0.08 0 c-0.68 -0.16 -0.76 -0.12 -0.76 -0.84 l0 -2.84 l0 -12.28 c0 -0.56 0 -1.12 -0.04 -1.76 z M63.898 11.920000000000002 c0 0.04 0.04 0.04 0.04 0.08 c0.16 0.68 0.2 1.4 0.2 2.16 l-0.04 0.04 c-0.12 0.64 -0.08 0.76 -0.8 0.8 c-0.24 0.04 -0.52 0.04 -0.8 0.04 l-6.28 0 c-0.24 0 -0.48 0 -0.72 0.04 c-0.2 0 -0.28 0.08 -0.28 0.24 l0 0.72 s0.04 0.48 0.04 0.72 l0 1.32 c0 0.56 0 1.08 0.08 1.64 l0 0.6 l0 5.12 c0 0.24 -0.04 0.48 0.04 0.76 c0.12 -0.04 0.2 0 0.28 -0.04 c0.92 -0.32 1.84 -0.48 2.76 -0.52 c0.64 -0.08 1.32 -0.12 1.96 -0.24 c0.32 -0.08 0.64 -0.12 1 -0.12 c0.36 -0.04 0.64 -0.08 0.96 -0.28 c0.08 -0.04 0.24 -0.04 0.32 0.08 c0.16 0.2 0.36 0.36 0.6 0.52 c0.36 0.24 0.56 0.88 0.28 1.44 c-0.32 0.6 -0.48 0.84 -1.32 1 c-0.28 0.04 -0.52 0.08 -0.8 0.12 c-0.84 0.12 -1.68 0.24 -2.52 0.32 c-0.12 0.04 -0.28 0.04 -0.4 0.04 c-1.04 0.08 -2 0.36 -2.92 0.8 c-0.16 0.08 -0.24 0.2 -0.24 0.4 l0 1.08 l0 4 c0 0.2 0 0.4 0.04 0.64 c0 0.08 0.04 0.12 0.12 0.16 l0.64 0 l6.32 0 l0.48 0 c0.72 0.04 0.64 -0.04 0.76 0.64 c0.08 0.56 0.08 1.08 0.08 1.6 l0 0.16 c-0.2 0.6 -0.12 0.72 -0.84 0.72 c-1.08 0.04 -2.16 0.04 -3.28 0 l-2.32 0 c-0.96 0 -1.96 0 -2.96 -0.04 c-0.56 -0.04 -1.08 -0.12 -1.64 -0.2 c-0.12 0 -0.2 -0.12 -0.24 -0.24 c-0.32 -0.88 -0.32 -0.88 -0.32 -1.84 c-0.04 -1.08 -0.04 -2.2 -0.04 -3.32 l0 -8.04 c0.04 -2.4 0.08 -4.84 0.08 -7.24 c0 -0.8 0.08 -1.6 0.08 -2.4 c0 -0.16 0.04 -0.36 -0.12 -0.52 c-0.08 -0.32 -0.2 -0.6 -0.28 -0.88 c-0.08 -0.64 -0.12 -1.28 0.08 -1.88 c0.08 -0.16 0.16 -0.24 0.32 -0.24 l0.52 0 l10.44 0 c0.2 0 0.44 -0.04 0.64 0.04 z M76.03 14.84 c-0.16 -0.68 -0.2 -1.4 -0.16 -2.12 l0.12 -0.48 c0.04 -0.12 0.12 -0.2 0.24 -0.24 l1.32 -0.12 c0.08 0 0.12 0 0.2 -0.04 c0.96 -0.16 1.88 -0.16 2.84 -0.16 l7.64 0 c0.56 0 1.16 0.08 1.72 0.16 c0.08 0 0.16 0.08 0.16 0.12 c0.12 0.72 0.2 1.44 0.16 2.16 c0 0.24 -0.08 0.44 -0.16 0.64 c-0.08 0.08 -0.16 0.16 -0.24 0.16 c-0.36 0 -0.72 0.04 -1.08 0.04 l-6.32 0 l-0.8 0 c-0.2 0 -0.32 0.12 -0.32 0.32 s-0.04 0.36 0 0.52 c0.08 0.44 0.04 0.88 0.04 1.32 l0 1.36 c0 0.4 0 0.8 0.04 1.16 c0.04 0.16 0.04 0.36 0.04 0.52 l0 3.44 c0 0.28 -0.04 0.56 -0.04 0.84 c-0.04 0.12 0 0.24 0 0.36 c0 0.08 0.08 0.16 0.16 0.12 c0.24 0 0.48 -0.04 0.72 -0.08 c0.56 -0.12 1.12 -0.12 1.72 -0.08 c0.4 0 0.76 -0.08 1.12 -0.24 c0.16 -0.08 0.32 -0.2 0.48 -0.28 c0.32 -0.2 0.6 -0.2 0.92 -0.08 l0.24 0.36 c0.32 0.28 0.44 0.68 0.56 1.08 c0.08 0.2 0.16 0.44 0.24 0.68 c0.04 0.16 0.04 0.32 0.08 0.48 c0 0.08 -0.04 0.12 -0.04 0.16 c-0.16 0.16 -0.28 0.32 -0.44 0.48 c-0.04 0 -0.08 0.04 -0.16 0.04 c-0.24 0.04 -0.44 0.16 -0.64 0.32 s-0.44 0.24 -0.72 0.32 c-0.16 0 -0.32 0.04 -0.48 0.12 c-0.28 0.16 -0.56 0.16 -0.84 0.12 c-0.12 -0.04 -0.24 -0.04 -0.36 -0.08 c-0.72 -0.24 -1.4 -0.12 -2.04 0.12 c-0.08 0.04 -0.16 0.08 -0.2 0.16 c-0.08 0.12 -0.12 0.24 -0.24 0.32 c-0.04 0.04 -0.08 0.16 -0.08 0.2 l0 0.88 l0 4.88 c0 0.44 0.04 0.92 0.08 1.36 c0.04 0.56 0.04 1.12 0 1.72 c-0.08 0.08 -0.24 0.16 -0.32 0.28 s-0.12 0.28 -0.16 0.4 c-0.36 0.2 -0.8 0.24 -1.16 0.36 c-0.36 0.08 -0.68 -0.08 -1 -0.24 c-0.08 -0.04 -0.16 -0.12 -0.2 -0.16 c-0.24 -0.2 -0.36 -0.4 -0.36 -0.68 l0 -0.68 c-0.04 -1.36 0 -2.72 -0.04 -4.08 c-0.04 -1.28 0 -2.56 0 -3.84 l0 -5 c0 -1.96 0.04 -3.88 0.08 -5.84 c0 -1.04 0.04 -2.12 0.08 -3.2 c0 -0.12 -0.08 -0.24 -0.2 -0.24 l-0.52 0 l-1.32 0 c-0.12 0 -0.24 0 -0.36 -0.12 z M96.236 14.559999999999999 c-1.08 -0.2 -2.2 -0.2 -3.32 -0.16 c-0.44 0.04 -0.56 -0.04 -0.76 -0.44 c-0.2 -0.44 -0.24 -0.92 -0.24 -1.44 c0 -0.56 0.08 -0.68 0.72 -0.92 c0.36 -0.16 0.72 -0.16 1.12 -0.2 c0.84 -0.04 1.68 0 2.52 0.04 l1.24 0 c0.56 -0.04 1.16 -0.04 1.72 -0.04 c0.08 0 0.2 0 0.28 0.04 c0.28 0.12 0.52 0.12 0.8 0.12 l2.16 0 c0.16 0 0.36 -0.04 0.52 0.04 c0 0.04 0.04 0.08 0.08 0.12 c0.04 0.44 0.12 0.84 0.16 1.28 c0 0.2 -0.04 0.4 0 0.56 c0 0.28 -0.08 0.56 -0.16 0.8 c-0.04 0.16 -0.16 0.28 -0.32 0.28 c-0.4 0.04 -0.84 0.04 -1.24 0.04 l-1.64 0 c-0.24 0 -0.36 0.12 -0.36 0.36 l0 0.6 c0 0.4 0.04 0.84 0.04 1.24 l0 6.64 c0 1.56 0.04 3.16 0 4.72 l0 6.76 c0 0.24 0 0.44 0.04 0.68 c0 0.04 0.04 0.08 0.08 0.08 c0.12 0.04 0.24 0.08 0.36 0.08 c0.56 0 1.12 0.16 1.68 0.04 l1.56 0.12 c0.08 0.04 0.16 0.04 0.24 0.04 l0.36 0.24 c0.08 0.08 0.12 0.2 0.16 0.32 c0.16 0.44 0.12 0.88 0.04 1.32 c0 0.04 -0.04 0.08 -0.04 0.12 c-0.2 0.76 -0.28 0.76 -0.96 0.68 c-0.04 0 -0.12 -0.04 -0.16 -0.04 c-0.64 0 -1.28 -0.04 -1.92 -0.08 c-0.44 0 -0.84 0.04 -1.24 0.08 c-0.24 0.04 -0.48 0.04 -0.64 0.24 c-0.4 0.12 -0.8 0.24 -1.2 0.28 c-0.36 0.04 -0.68 -0.12 -1 -0.28 c-0.08 -0.04 -0.16 -0.12 -0.24 -0.16 c-0.12 -0.04 -0.24 -0.08 -0.36 -0.08 c-0.2 0 -0.4 0.04 -0.6 0 c-0.2 0 -0.44 0 -0.64 0.08 c-0.16 0.08 -0.32 0.12 -0.52 0.12 c-0.24 0 -0.52 0.04 -0.8 0.12 c-0.48 0.12 -0.96 0.04 -1.44 -0.12 c-0.16 -0.12 -0.32 -0.28 -0.44 -0.4 c-0.04 -0.04 -0.04 -0.08 -0.04 -0.12 c0 -0.2 0.04 -0.36 0.04 -0.52 c0.04 -0.24 0.08 -0.48 0.04 -0.76 c-0.04 -0.2 0 -0.44 0.08 -0.64 c0.04 -0.24 0.24 -0.44 0.52 -0.48 c0.48 -0.04 1 -0.08 1.48 -0.12 l0.72 -0.12 s0.48 -0.08 0.72 0 c0.2 0.04 0.4 0 0.6 -0.04 c0.32 -0.04 0.36 -0.08 0.36 -0.44 l0 -1.76 c-0.04 -0.92 -0.04 -1.8 -0.04 -2.68 l0 -6.68 c0.04 -1.96 0.04 -3.92 0.08 -5.88 c0 -0.96 0 -1.92 0.08 -2.88 l0 -0.24 c0.04 -0.24 -0.08 -0.4 -0.28 -0.56 z M112.80199999999999 26.4 c0.04 -2.96 0.04 -5.92 0.04 -8.88 c0 -0.52 0.04 -1.08 0.08 -1.6 c0 -0.28 -0.04 -0.56 -0.04 -0.8 c0 -0.04 -0.04 -0.08 -0.08 -0.08 c-0.16 -0.04 -0.32 -0.04 -0.44 -0.04 l-4.44 0 l-0.72 0 c-0.12 0 -0.24 -0.04 -0.32 -0.08 c-0.08 0 -0.16 -0.08 -0.2 -0.16 c0 -0.16 -0.04 -0.28 -0.08 -0.44 c-0.24 -0.68 -0.24 -1.36 -0.16 -2.08 c0.04 -0.16 0.12 -0.32 0.16 -0.48 c0.04 -0.08 0.12 -0.16 0.2 -0.16 c0.08 -0.04 0.16 -0.04 0.24 -0.04 l0.52 0 l12.6 0 l1 0 c0.12 0 0.2 0 0.32 0.04 c0.12 0 0.2 0.04 0.24 0.16 c0.2 0.96 0.28 1.92 0.04 2.84 c-0.08 0.2 -0.2 0.32 -0.36 0.36 c-0.24 0 -0.44 0.04 -0.64 0.04 l-3.88 0 l-0.6 0 c-0.08 0.04 -0.16 0.12 -0.16 0.2 l0 0.24 c0.08 0.4 0.04 0.8 0.04 1.16 l0 19.08 c0 0.4 -0.04 0.8 -0.04 1.2 l0 1.08 l0 0.68 c-0.04 0.12 -0.12 0.24 -0.24 0.28 c-0.6 0.08 -1.2 0.16 -1.84 0.16 c-0.28 -0.04 -0.56 -0.08 -0.8 -0.16 c-0.16 -0.04 -0.24 -0.16 -0.24 -0.32 c-0.04 -0.44 -0.08 -0.88 -0.08 -1.36 c-0.08 -1.48 -0.08 -2.96 -0.08 -4.44 l0 -2.68 l0 -2 l0 -1.72 l-0.04 0 z M124.60799999999999 11.48 c0.6 -0.28 1.2 -0.4 1.84 -0.4 c0.16 0 0.36 0 0.56 0.04 c0.16 0.04 0.24 0.12 0.28 0.28 c0.08 0.16 0.12 0.28 0.16 0.44 c0.08 0.36 0.12 0.72 0.2 1.08 c0.04 0.12 0.08 0.24 0.12 0.4 c0.08 0.12 0.16 0.24 0.2 0.36 c0.16 0.68 0.36 1.32 0.52 2 c0.12 0.4 0.24 0.8 0.44 1.2 c0.28 0.56 0.56 1.12 0.84 1.72 c0.24 0.52 0.52 1.04 0.76 1.6 c0.32 0.64 0.6 1.32 0.92 2 c0.12 0.28 0.32 0.56 0.48 0.88 c0.52 0.92 0.92 1.88 1.2 2.92 c0.04 0.2 0.12 0.4 0.2 0.6 c0.44 1.04 0.88 2.04 1.32 3.04 c0.16 0.32 0.32 0.6 0.52 0.88 c0.24 0.32 0.48 0.68 0.68 1.04 c0.12 0.24 0.28 0.4 0.4 0.6 c0.04 0.04 0.08 0.04 0.12 0.08 c0.04 0 0.12 -0.08 0.12 -0.16 l0 -0.72 l0 -19.72 l0 -0.72 c0 -0.08 0.04 -0.16 0.08 -0.24 c0.76 -0.2 1.52 -0.2 2.28 -0.2 c0.08 0 0.16 0.04 0.28 0.04 c0.36 0.12 0.48 0.12 0.52 0.6 c0.08 0.88 0.04 1.76 0.04 2.64 l0 2.84 c0.04 0.28 0 0.56 0 0.84 c0 0.56 0.04 1.12 0 1.72 c0 0.56 0.04 1.16 0 1.76 l0 1.68 l0 1.8 l0 2.2 c0 0.8 -0.04 1.64 -0.04 2.44 c0 0.36 0 0.68 -0.04 1 c0 1.44 0 2.84 -0.04 4.28 c0 0.52 -0.04 1.04 -0.08 1.56 l0 0.28 c-0.04 0.52 0.12 0.96 0.6 1.24 c0.24 0.12 0.32 0.28 0.32 0.52 c0.04 0.12 0.04 0.28 0.04 0.4 c0 0.16 -0.08 0.24 -0.16 0.32 c-0.28 0.2 -0.48 0.52 -0.68 0.8 c-0.08 0.16 -0.16 0.28 -0.28 0.4 c-0.24 0.2 -0.48 0.32 -0.76 0.28 c-0.12 -0.04 -0.2 0 -0.28 0 c-0.28 0 -0.48 -0.12 -0.64 -0.32 c-0.2 -0.24 -0.44 -0.48 -0.64 -0.72 c-0.16 -0.16 -0.28 -0.36 -0.36 -0.52 c-0.28 -0.6 -0.64 -1.2 -1 -1.72 c-0.2 -0.28 -0.4 -0.56 -0.6 -0.8 c-0.28 -0.24 -0.52 -0.56 -0.72 -0.88 c-0.16 -0.2 -0.32 -0.4 -0.44 -0.64 c-0.12 -0.16 -0.24 -0.32 -0.36 -0.52 c-0.2 -0.44 -0.44 -0.84 -0.72 -1.2 s-0.52 -0.76 -0.72 -1.16 c-0.32 -0.56 -0.6 -1.12 -0.84 -1.72 c-0.12 -0.44 -0.32 -0.84 -0.52 -1.24 c-0.36 -0.76 -0.68 -1.56 -0.92 -2.36 c-0.12 -0.44 -0.32 -0.84 -0.52 -1.24 c-0.48 -0.88 -0.92 -1.72 -1.28 -2.64 c-0.04 -0.12 -0.12 -0.24 -0.2 -0.36 l-0.04 0 l-0.08 0 l0 0.56 l0 7.48 c-0.04 2 -0.04 4.04 -0.08 6.08 c0 0.76 -0.04 1.52 -0.16 2.28 c-0.04 0.16 -0.04 0.32 -0.04 0.48 c-0.04 0.2 -0.16 0.36 -0.36 0.44 c-0.52 0.2 -1.04 0.24 -1.6 0.16 c-0.16 0 -0.36 -0.08 -0.52 -0.12 c-0.12 -0.04 -0.16 -0.12 -0.16 -0.24 c-0.04 -0.12 -0.04 -0.24 -0.08 -0.36 c0 -0.16 0 -0.32 -0.04 -0.48 c-0.08 -0.64 -0.12 -1.28 -0.16 -1.92 l0 -0.96 c-0.04 -0.4 -0.04 -0.8 -0.04 -1.24 l0 -20.28 c0 -0.44 0.04 -0.88 -0.08 -1.32 c-0.04 -0.08 0 -0.2 0.04 -0.28 c0.12 -0.28 0.16 -0.56 0.2 -0.88 z M157.094 11.920000000000002 c0 0.04 0.04 0.04 0.04 0.08 c0.16 0.68 0.2 1.4 0.2 2.16 l-0.04 0.04 c-0.12 0.64 -0.08 0.76 -0.8 0.8 c-0.24 0.04 -0.52 0.04 -0.8 0.04 l-6.28 0 c-0.24 0 -0.48 0 -0.72 0.04 c-0.2 0 -0.28 0.08 -0.28 0.24 l0 0.72 s0.04 0.48 0.04 0.72 l0 1.32 c0 0.56 0 1.08 0.08 1.64 l0 0.6 l0 5.12 c0 0.24 -0.04 0.48 0.04 0.76 c0.12 -0.04 0.2 0 0.28 -0.04 c0.92 -0.32 1.84 -0.48 2.76 -0.52 c0.64 -0.08 1.32 -0.12 1.96 -0.24 c0.32 -0.08 0.64 -0.12 1 -0.12 c0.36 -0.04 0.64 -0.08 0.96 -0.28 c0.08 -0.04 0.24 -0.04 0.32 0.08 c0.16 0.2 0.36 0.36 0.6 0.52 c0.36 0.24 0.56 0.88 0.28 1.44 c-0.32 0.6 -0.48 0.84 -1.32 1 c-0.28 0.04 -0.52 0.08 -0.8 0.12 c-0.84 0.12 -1.68 0.24 -2.52 0.32 c-0.12 0.04 -0.28 0.04 -0.4 0.04 c-1.04 0.08 -2 0.36 -2.92 0.8 c-0.16 0.08 -0.24 0.2 -0.24 0.4 l0 1.08 l0 4 c0 0.2 0 0.4 0.04 0.64 c0 0.08 0.04 0.12 0.12 0.16 l0.64 0 l6.32 0 l0.48 0 c0.72 0.04 0.64 -0.04 0.76 0.64 c0.08 0.56 0.08 1.08 0.08 1.6 l0 0.16 c-0.2 0.6 -0.12 0.72 -0.84 0.72 c-1.08 0.04 -2.16 0.04 -3.28 0 l-2.32 0 c-0.96 0 -1.96 0 -2.96 -0.04 c-0.56 -0.04 -1.08 -0.12 -1.64 -0.2 c-0.12 0 -0.2 -0.12 -0.24 -0.24 c-0.32 -0.88 -0.32 -0.88 -0.32 -1.84 c-0.04 -1.08 -0.04 -2.2 -0.04 -3.32 l0 -8.04 c0.04 -2.4 0.08 -4.84 0.08 -7.24 c0 -0.8 0.08 -1.6 0.08 -2.4 c0 -0.16 0.04 -0.36 -0.12 -0.52 c-0.08 -0.32 -0.2 -0.6 -0.28 -0.88 c-0.08 -0.64 -0.12 -1.28 0.08 -1.88 c0.08 -0.16 0.16 -0.24 0.32 -0.24 l0.52 0 l10.44 0 c0.2 0 0.44 -0.04 0.64 0.04 z M163.98 21.2 c0.4 0.56 0.84 1.08 1.32 1.6 c0.36 0.44 0.8 0.72 1.28 0.96 c0.36 0.12 0.68 0.28 1 0.44 c0.56 0.36 1.04 0.72 1.48 1.16 c0.4 0.4 0.8 0.84 1.24 1.16 c0.12 0.12 0.2 0.24 0.36 0.36 l0.32 0 c0.12 0.04 0.2 0.08 0.28 0.16 c0.28 0.28 0.48 0.6 0.56 1 c0.04 0.32 0.12 0.64 0.24 0.96 c0.12 0.4 0.16 0.84 0.2 1.28 l0 1.16 c0 0.2 0 0.44 0.12 0.64 c0.04 0.08 0.04 0.2 0.04 0.32 c0.04 0.24 0.04 0.48 0.08 0.68 c0.08 0.56 0.08 1.08 -0.04 1.64 c-0.04 0.08 -0.04 0.2 -0.04 0.32 c-0.04 0.08 -0.04 0.2 -0.08 0.32 c-0.16 0.4 -0.24 0.84 -0.4 1.28 c0 0.04 -0.04 0.12 -0.08 0.16 c-0.2 0.28 -0.36 0.6 -0.56 0.88 c-0.08 0.12 -0.16 0.24 -0.28 0.36 c-0.32 0.08 -0.64 0.2 -0.96 0.4 c-0.08 0.08 -0.2 0.12 -0.36 0.12 c-0.12 0 -0.28 0.04 -0.44 0.04 c-0.24 0.04 -0.4 0.12 -0.56 0.32 s-0.36 0.28 -0.6 0.32 l-0.2 0 c-0.24 0.04 -0.52 0.12 -0.76 0.12 c-0.28 0 -0.52 -0.08 -0.76 -0.12 l-0.4 0 c-0.24 0 -0.48 -0.04 -0.68 -0.16 c-0.36 -0.16 -0.76 -0.28 -1.12 -0.36 c-0.28 -0.08 -0.52 -0.2 -0.76 -0.36 s-0.48 -0.32 -0.72 -0.44 c-0.6 -0.32 -1 -0.88 -1.36 -1.48 c-0.04 -0.2 -0.12 -0.4 -0.12 -0.6 c-0.04 -0.4 -0.16 -0.76 -0.2 -1.16 c-0.12 -0.6 -0.24 -1.2 -0.2 -1.8 c0.04 -0.2 0.04 -0.4 0.08 -0.6 c0.04 -0.28 0.08 -0.56 0.08 -0.84 c0 -0.16 0 -0.32 0.04 -0.48 c0.12 -0.28 0.08 -0.52 0.04 -0.76 c-0.08 -0.24 -0.12 -0.44 -0.2 -0.68 c0.08 -0.2 0.16 -0.4 0.24 -0.64 c0.04 -0.12 0.16 -0.2 0.28 -0.2 l0.48 0 c0.44 -0.04 0.92 -0.04 1.36 -0.04 c0.2 0 0.32 0.08 0.44 0.2 c0.08 0.08 0.12 0.16 0.12 0.24 c-0.04 0.24 0 0.44 0.2 0.6 c0.08 0.08 0.12 0.2 0.08 0.36 c-0.04 0.08 -0.08 0.2 -0.12 0.32 c-0.08 0.2 -0.12 0.44 -0.08 0.68 c0.08 0.24 0.04 0.52 0.08 0.76 c0 0.28 -0.04 0.52 0.08 0.8 c0.04 0.12 0.04 0.24 0 0.36 c-0.12 0.36 -0.08 0.68 -0.04 1.04 c0 0.16 0.08 0.32 0.24 0.44 c0.36 0.32 0.72 0.6 1.2 0.76 c0.12 0.04 0.28 0.12 0.4 0.16 c0.2 0.08 0.4 0.12 0.64 0.12 c0.16 0 0.36 0 0.52 0.08 c0.56 0.12 1.08 0.04 1.6 -0.16 c0.2 -0.04 0.4 -0.16 0.6 -0.24 c0.16 -0.44 0.32 -0.84 0.28 -1.32 l0 -2.84 l0 -0.4 c0 -0.28 -0.08 -0.52 -0.36 -0.64 c-0.08 -0.08 -0.16 -0.16 -0.2 -0.28 c-0.08 -0.36 -0.32 -0.64 -0.6 -0.88 c-0.52 -0.48 -1 -0.96 -1.52 -1.44 c-0.12 -0.08 -0.2 -0.2 -0.36 -0.24 c-0.16 0 -0.36 -0.08 -0.48 -0.16 c-0.28 -0.16 -0.56 -0.24 -0.88 -0.32 c-0.8 -0.2 -1.52 -0.56 -2.12 -1.12 c-0.52 -0.48 -0.84 -1.04 -1.16 -1.56 c-0.16 -0.24 -0.28 -0.52 -0.4 -0.76 c-0.2 -0.36 -0.24 -0.8 -0.36 -1.16 c-0.04 -0.08 0 -0.16 0 -0.2 c0.08 -0.28 0.12 -0.52 -0.04 -0.76 c-0.04 -0.48 -0.16 -0.92 -0.12 -1.4 c0.04 -0.44 0.08 -0.88 0.04 -1.32 l0 -0.16 c0.12 -0.32 0.12 -0.6 0.12 -0.92 l0 -1.88 c-0.04 -0.4 0.08 -0.76 0.32 -1.08 c0.08 -0.12 0.12 -0.2 0.2 -0.28 c0.28 -0.36 0.6 -0.76 0.92 -1.12 c0.04 -0.08 0.12 -0.12 0.24 -0.2 c0.36 -0.16 0.64 -0.4 0.96 -0.64 c0.24 -0.2 0.52 -0.36 0.84 -0.48 c0.28 -0.08 0.52 -0.24 0.8 -0.24 c0.12 0 0.24 -0.04 0.4 -0.04 c0.32 0 0.64 -0.04 0.96 -0.08 c0.2 -0.04 0.44 0 0.64 0.04 c0.36 0.04 0.68 0.08 1.04 0.08 c0.24 0.04 0.52 0.04 0.76 0.12 c0.2 0.04 0.4 0.16 0.6 0.28 c0.32 0.2 0.56 0.52 0.76 0.84 c0.16 0.24 0.28 0.48 0.48 0.68 c0.12 0.16 0.24 0.32 0.28 0.52 c0.04 0.12 0.08 0.24 0.16 0.36 c0.12 0.36 0.24 0.72 0.28 1.12 c0.04 0.16 0.08 0.32 0.08 0.44 c0.04 0.32 0.16 0.6 0.4 0.8 c0.12 0.08 0.12 0.16 0.12 0.28 c0 0.48 0 0.96 -0.04 1.44 c-0.08 0.36 -0.08 0.72 -0.08 1.08 c0 0.52 -0.04 1 -0.16 1.48 c-0.04 0.2 -0.04 0.36 0 0.52 c0.04 0.12 0.04 0.2 0.04 0.32 c0 0.08 0 0.12 -0.04 0.2 c-0.16 0.16 -0.32 0.28 -0.52 0.36 c-0.44 0.12 -0.88 0.2 -1.36 0.28 c-0.04 0.04 -0.12 0 -0.16 -0.04 c-0.12 -0.12 -0.28 -0.28 -0.4 -0.44 c0 -0.04 -0.04 -0.12 -0.04 -0.16 c-0.04 -0.28 -0.08 -0.52 -0.08 -0.8 c0.04 -0.36 0 -0.72 0 -1.08 c0 -0.28 0.04 -0.56 -0.04 -0.84 c-0.04 -0.04 -0.04 -0.08 -0.04 -0.12 c0.08 -0.72 -0.12 -1.44 -0.28 -2.12 c0 -0.04 0 -0.08 -0.04 -0.12 c-0.2 -0.36 -0.36 -0.8 -0.68 -1.12 c-0.2 -0.24 -0.44 -0.48 -0.68 -0.68 c-0.28 -0.24 -0.6 -0.36 -0.88 -0.52 l-0.2 0 c-0.44 0 -0.84 0.16 -1.24 0.36 c-0.08 0.04 -0.12 0.12 -0.2 0.16 l-0.56 0.56 s-0.4 0.4 -0.44 0.68 c0 0.12 -0.04 0.2 -0.04 0.28 c-0.04 0.08 -0.08 0.2 -0.04 0.32 c0.04 0.32 -0.16 0.68 -0.12 1 l0 2.88 c0 0.16 0.04 0.32 0.04 0.52 z M177.266 21.2 c0.4 0.56 0.84 1.08 1.32 1.6 c0.36 0.44 0.8 0.72 1.28 0.96 c0.36 0.12 0.68 0.28 1 0.44 c0.56 0.36 1.04 0.72 1.48 1.16 c0.4 0.4 0.8 0.84 1.24 1.16 c0.12 0.12 0.2 0.24 0.36 0.36 l0.32 0 c0.12 0.04 0.2 0.08 0.28 0.16 c0.28 0.28 0.48 0.6 0.56 1 c0.04 0.32 0.12 0.64 0.24 0.96 c0.12 0.4 0.16 0.84 0.2 1.28 l0 1.16 c0 0.2 0 0.44 0.12 0.64 c0.04 0.08 0.04 0.2 0.04 0.32 c0.04 0.24 0.04 0.48 0.08 0.68 c0.08 0.56 0.08 1.08 -0.04 1.64 c-0.04 0.08 -0.04 0.2 -0.04 0.32 c-0.04 0.08 -0.04 0.2 -0.08 0.32 c-0.16 0.4 -0.24 0.84 -0.4 1.28 c0 0.04 -0.04 0.12 -0.08 0.16 c-0.2 0.28 -0.36 0.6 -0.56 0.88 c-0.08 0.12 -0.16 0.24 -0.28 0.36 c-0.32 0.08 -0.64 0.2 -0.96 0.4 c-0.08 0.08 -0.2 0.12 -0.36 0.12 c-0.12 0 -0.28 0.04 -0.44 0.04 c-0.24 0.04 -0.4 0.12 -0.56 0.32 s-0.36 0.28 -0.6 0.32 l-0.2 0 c-0.24 0.04 -0.52 0.12 -0.76 0.12 c-0.28 0 -0.52 -0.08 -0.76 -0.12 l-0.4 0 c-0.24 0 -0.48 -0.04 -0.68 -0.16 c-0.36 -0.16 -0.76 -0.28 -1.12 -0.36 c-0.28 -0.08 -0.52 -0.2 -0.76 -0.36 s-0.48 -0.32 -0.72 -0.44 c-0.6 -0.32 -1 -0.88 -1.36 -1.48 c-0.04 -0.2 -0.12 -0.4 -0.12 -0.6 c-0.04 -0.4 -0.16 -0.76 -0.2 -1.16 c-0.12 -0.6 -0.24 -1.2 -0.2 -1.8 c0.04 -0.2 0.04 -0.4 0.08 -0.6 c0.04 -0.28 0.08 -0.56 0.08 -0.84 c0 -0.16 0 -0.32 0.04 -0.48 c0.12 -0.28 0.08 -0.52 0.04 -0.76 c-0.08 -0.24 -0.12 -0.44 -0.2 -0.68 c0.08 -0.2 0.16 -0.4 0.24 -0.64 c0.04 -0.12 0.16 -0.2 0.28 -0.2 l0.48 0 c0.44 -0.04 0.92 -0.04 1.36 -0.04 c0.2 0 0.32 0.08 0.44 0.2 c0.08 0.08 0.12 0.16 0.12 0.24 c-0.04 0.24 0 0.44 0.2 0.6 c0.08 0.08 0.12 0.2 0.08 0.36 c-0.04 0.08 -0.08 0.2 -0.12 0.32 c-0.08 0.2 -0.12 0.44 -0.08 0.68 c0.08 0.24 0.04 0.52 0.08 0.76 c0 0.28 -0.04 0.52 0.08 0.8 c0.04 0.12 0.04 0.24 0 0.36 c-0.12 0.36 -0.08 0.68 -0.04 1.04 c0 0.16 0.08 0.32 0.24 0.44 c0.36 0.32 0.72 0.6 1.2 0.76 c0.12 0.04 0.28 0.12 0.4 0.16 c0.2 0.08 0.4 0.12 0.64 0.12 c0.16 0 0.36 0 0.52 0.08 c0.56 0.12 1.08 0.04 1.6 -0.16 c0.2 -0.04 0.4 -0.16 0.6 -0.24 c0.16 -0.44 0.32 -0.84 0.28 -1.32 l0 -2.84 l0 -0.4 c0 -0.28 -0.08 -0.52 -0.36 -0.64 c-0.08 -0.08 -0.16 -0.16 -0.2 -0.28 c-0.08 -0.36 -0.32 -0.64 -0.6 -0.88 c-0.52 -0.48 -1 -0.96 -1.52 -1.44 c-0.12 -0.08 -0.2 -0.2 -0.36 -0.24 c-0.16 0 -0.36 -0.08 -0.48 -0.16 c-0.28 -0.16 -0.56 -0.24 -0.88 -0.32 c-0.8 -0.2 -1.52 -0.56 -2.12 -1.12 c-0.52 -0.48 -0.84 -1.04 -1.16 -1.56 c-0.16 -0.24 -0.28 -0.52 -0.4 -0.76 c-0.2 -0.36 -0.24 -0.8 -0.36 -1.16 c-0.04 -0.08 0 -0.16 0 -0.2 c0.08 -0.28 0.12 -0.52 -0.04 -0.76 c-0.04 -0.48 -0.16 -0.92 -0.12 -1.4 c0.04 -0.44 0.08 -0.88 0.04 -1.32 l0 -0.16 c0.12 -0.32 0.12 -0.6 0.12 -0.92 l0 -1.88 c-0.04 -0.4 0.08 -0.76 0.32 -1.08 c0.08 -0.12 0.12 -0.2 0.2 -0.28 c0.28 -0.36 0.6 -0.76 0.92 -1.12 c0.04 -0.08 0.12 -0.12 0.24 -0.2 c0.36 -0.16 0.64 -0.4 0.96 -0.64 c0.24 -0.2 0.52 -0.36 0.84 -0.48 c0.28 -0.08 0.52 -0.24 0.8 -0.24 c0.12 0 0.24 -0.04 0.4 -0.04 c0.32 0 0.64 -0.04 0.96 -0.08 c0.2 -0.04 0.44 0 0.64 0.04 c0.36 0.04 0.68 0.08 1.04 0.08 c0.24 0.04 0.52 0.04 0.76 0.12 c0.2 0.04 0.4 0.16 0.6 0.28 c0.32 0.2 0.56 0.52 0.76 0.84 c0.16 0.24 0.28 0.48 0.48 0.68 c0.12 0.16 0.24 0.32 0.28 0.52 c0.04 0.12 0.08 0.24 0.16 0.36 c0.12 0.36 0.24 0.72 0.28 1.12 c0.04 0.16 0.08 0.32 0.08 0.44 c0.04 0.32 0.16 0.6 0.4 0.8 c0.12 0.08 0.12 0.16 0.12 0.28 c0 0.48 0 0.96 -0.04 1.44 c-0.08 0.36 -0.08 0.72 -0.08 1.08 c0 0.52 -0.04 1 -0.16 1.48 c-0.04 0.2 -0.04 0.36 0 0.52 c0.04 0.12 0.04 0.2 0.04 0.32 c0 0.08 0 0.12 -0.04 0.2 c-0.16 0.16 -0.32 0.28 -0.52 0.36 c-0.44 0.12 -0.88 0.2 -1.36 0.28 c-0.04 0.04 -0.12 0 -0.16 -0.04 c-0.12 -0.12 -0.28 -0.28 -0.4 -0.44 c0 -0.04 -0.04 -0.12 -0.04 -0.16 c-0.04 -0.28 -0.08 -0.52 -0.08 -0.8 c0.04 -0.36 0 -0.72 0 -1.08 c0 -0.28 0.04 -0.56 -0.04 -0.84 c-0.04 -0.04 -0.04 -0.08 -0.04 -0.12 c0.08 -0.72 -0.12 -1.44 -0.28 -2.12 c0 -0.04 0 -0.08 -0.04 -0.12 c-0.2 -0.36 -0.36 -0.8 -0.68 -1.12 c-0.2 -0.24 -0.44 -0.48 -0.68 -0.68 c-0.28 -0.24 -0.6 -0.36 -0.88 -0.52 l-0.2 0 c-0.44 0 -0.84 0.16 -1.24 0.36 c-0.08 0.04 -0.12 0.12 -0.2 0.16 l-0.56 0.56 s-0.4 0.4 -0.44 0.68 c0 0.12 -0.04 0.2 -0.04 0.28 c-0.04 0.08 -0.08 0.2 -0.04 0.32 c0.04 0.32 -0.16 0.68 -0.12 1 l0 2.88 c0 0.16 0.04 0.32 0.04 0.52 z"></path>
  </g>
</svg>